<?xml version="1.0" encoding="UTF-8" standalone="no"?>
<!-- Created with Inkscape (http://www.inkscape.org/) -->

<svg
   xmlns:dc="http://purl.org/dc/elements/1.1/"
   xmlns:cc="http://creativecommons.org/ns#"
   xmlns:rdf="http://www.w3.org/1999/02/22-rdf-syntax-ns#"
   xmlns:svg="http://www.w3.org/2000/svg"
   xmlns="http://www.w3.org/2000/svg"
   xmlns:sodipodi="http://sodipodi.sourceforge.net/DTD/sodipodi-0.dtd"
   xmlns:inkscape="http://www.inkscape.org/namespaces/inkscape"
   width="640"
   height="640"
   viewBox="0 0 640.00001 640.00001"
   id="svg5489"
   version="1.1"
   inkscape:version="0.91 r13725"
   sodipodi:docname="nevv02.svg">
  <defs
     id="defs5491" />
  <sodipodi:namedview
     id="base"
     pagecolor="#ffffff"
     bordercolor="#666666"
     borderopacity="1.0"
     inkscape:pageopacity="0.0"
     inkscape:pageshadow="2"
     inkscape:zoom="0.7"
     inkscape:cx="-125.38882"
     inkscape:cy="-4.0878813"
     inkscape:document-units="px"
     inkscape:current-layer="layer1"
     showgrid="false"
     units="px"
     fit-margin-top="0"
     fit-margin-left="0"
     fit-margin-right="0"
     fit-margin-bottom="0"
     inkscape:snap-page="true"
     inkscape:window-width="1855"
     inkscape:window-height="1056"
     inkscape:window-x="65"
     inkscape:window-y="24"
     inkscape:window-maximized="1" />
  <metadata
     id="metadata5494">
    <rdf:RDF>
      <cc:Work
         rdf:about="">
        <dc:format>image/svg+xml</dc:format>
        <dc:type
           rdf:resource="http://purl.org/dc/dcmitype/StillImage" />
        <dc:title></dc:title>
      </cc:Work>
    </rdf:RDF>
  </metadata>
  <g
     inkscape:label="Layer 1"
     inkscape:groupmode="layer"
     id="layer1"
     transform="translate(-15.993763,87.528902)">
    <g
       id="g6053"
       transform="translate(19.999999,-0.84977117)">
      <circle
         r="206.15715"
         cy="146.82654"
         cx="320.20547"
         id="path5188"
         style="fill:#1d494a;fill-opacity:1;stroke:#3bb8bc;stroke-width:52.99753189;stroke-linecap:round;stroke-linejoin:round;stroke-miterlimit:4;stroke-dasharray:none;stroke-opacity:1" />
      <path
         sodipodi:nodetypes="csssssc"
         inkscape:connector-curvature="0"
         id="path5173"
         d="m 219.67592,203.5994 0,-56.7729 c 0,-36.63736 25.13242,-56.772888 50.2648,-56.772888 25.13238,0 50.26478,20.135528 50.26478,56.772888 0,36.63735 25.13239,56.7729 50.26478,56.7729 25.13237,0 50.26479,-20.13254 50.26479,-56.7729 l 0,-56.772888"
         style="fill:none;fill-rule:evenodd;stroke:#3bb8bc;stroke-width:47.33731842;stroke-linecap:round;stroke-linejoin:round;stroke-miterlimit:4;stroke-dasharray:none;stroke-opacity:1" />
      <path
         sodipodi:nodetypes="csssssc"
         inkscape:connector-curvature="0"
         id="path5173-2"
         d="m 33.662917,532.41865 0,-42.37794 c 0,-27.34782 18.760013,-42.37791 37.519984,-42.37791 18.759975,0 37.519959,15.03009 37.519959,42.37791 0,27.34783 18.75999,42.37794 37.51997,42.37794 18.75998,0 37.51998,-15.02787 37.51998,-42.37794 l 0,-42.37791"
         style="fill:none;fill-rule:evenodd;stroke:#3bb8bc;stroke-width:35.33477402;stroke-linecap:round;stroke-linejoin:round;stroke-miterlimit:4;stroke-dasharray:none;stroke-opacity:1" />
      <path
         sodipodi:nodetypes="csssssssc"
         inkscape:connector-curvature="0"
         id="path5456"
         d="m 268.56421,484.72471 c 37.87656,-0.66449 40.53457,-0.0176 51.83108,0 11.28773,0.0176 25.04274,-4.59689 24.78116,-20.53273 -0.20241,-12.33129 -19.45617,-23.51123 -42.0582,-23.32432 -23.53276,0.19463 -24.84222,0.22956 -35.49378,0.38926 -12.98138,0.19464 -30.91598,14.72612 -30.25148,34.66113 0.66449,19.93503 0.42956,27.36546 0.15431,36.66848 -0.27583,9.32262 14.12958,25.21763 28.7486,25.21763 14.61903,0 59.38817,0.0807 72.67819,0.0807"
         style="fill:none;fill-rule:evenodd;stroke:#3bb8bc;stroke-width:28.38033295;stroke-linecap:round;stroke-linejoin:miter;stroke-miterlimit:4;stroke-dasharray:none;stroke-opacity:1" />
      <path
         sodipodi:nodetypes="csssc"
         inkscape:connector-curvature="0"
         id="path5458"
         d="m 387.88529,444.78096 c 11.96102,28.57355 21.0694,67.23551 25.05641,77.86753 3.98702,10.632 11.06158,15.63246 19.70007,15.63246 8.63852,0 16.07586,-6.49069 18.49899,-13.63896 3.31176,-9.76977 21.45855,-79.19652 21.45855,-79.19652"
         style="fill:none;fill-rule:evenodd;stroke:#3bb8bc;stroke-width:28.38033295;stroke-linecap:round;stroke-linejoin:miter;stroke-miterlimit:4;stroke-dasharray:none;stroke-opacity:1" />
      <path
         sodipodi:nodetypes="csssc"
         inkscape:connector-curvature="0"
         id="path5458-9"
         d="m 517.03745,443.54361 c 11.961,28.57353 21.06939,67.23549 25.05645,77.86751 3.98698,10.63202 11.06156,15.63247 19.69999,15.63247 8.63853,0 16.07588,-6.49068 18.49901,-13.63896 3.31176,-9.76977 21.45853,-79.19652 21.45853,-79.19652"
         style="fill:none;fill-rule:evenodd;stroke:#3bb8bc;stroke-width:28.38033295;stroke-linecap:round;stroke-linejoin:miter;stroke-miterlimit:4;stroke-dasharray:none;stroke-opacity:1" />
    </g>
  </g>
</svg>
